<?xml version="1.0" encoding="UTF-8" standalone="no"?><!DOCTYPE svg PUBLIC "-//W3C//DTD SVG 1.1//EN" "http://www.w3.org/Graphics/SVG/1.1/DTD/svg11.dtd"><svg width="100%" height="100%" viewBox="0 0 1600 2000" version="1.1" xmlns="http://www.w3.org/2000/svg" xmlns:xlink="http://www.w3.org/1999/xlink" xml:space="preserve" xmlns:serif="http://www.serif.com/" style="fill-rule:evenodd;clip-rule:evenodd;stroke-linejoin:round;stroke-miterlimit:2;"><g><g><path d="M1433.33,0l-1266.67,0c-92,0.108 -166.559,74.667 -166.667,166.667l-0,900c0.108,92 74.667,166.558 166.667,166.666l455.8,0l-47.6,166.667l-108.2,0l-0,66.667l666.666,-0l0,-66.667l-108.2,0l-47.6,-166.667l455.8,0c92,-0.108 166.559,-74.666 166.667,-166.666l0,-900c-0.108,-92 -74.667,-166.559 -166.667,-166.667Zm-789.133,1400l47.6,-166.667l216.4,0l47.6,166.667l-311.6,0Zm889.133,-333.333c0,55.229 -44.771,100 -100,100l-1266.67,-0c-55.23,-0 -100,-44.771 -100,-100l-0,-66.667l1466.67,0l0,66.667Zm0,-133.334l-1466.67,0l-0,-766.666c-0,-55.229 44.77,-100 100,-100l1266.67,-0c55.229,-0 100,44.771 100,100l0,766.666Z" style="fill-rule:nonzero;"/></g></g><g><g><path d="M1066.67,1533.33l-933.334,0c-18.408,0 -33.333,14.925 -33.333,33.334l0,400c0,18.408 14.925,33.333 33.333,33.333l933.334,0c18.408,0 33.333,-14.925 33.333,-33.333l0,-400c0,-18.409 -14.925,-33.334 -33.333,-33.334Zm-33.334,400l-866.666,0l-0,-333.333l866.666,0l0,333.333Z" style="fill-rule:nonzero;"/></g></g><g><g><rect x="233.333" y="1800" width="66.667" height="66.667"/></g></g><g><g><rect x="233.333" y="1666.67" width="66.667" height="66.667"/></g></g><g><g><rect x="366.667" y="1666.67" width="66.667" height="66.667"/></g></g><g><g><rect x="500" y="1666.67" width="66.667" height="66.667"/></g></g><g><g><rect x="766.667" y="1666.67" width="66.667" height="66.667"/></g></g><g><g><rect x="633.333" y="1666.67" width="66.667" height="66.667"/></g></g><g><g><rect x="900" y="1800" width="66.667" height="66.667"/></g></g><g><g><rect x="900" y="1666.67" width="66.667" height="66.667"/></g></g><g><g><rect x="366.667" y="1800" width="466.667" height="66.667"/></g></g><g><g><path d="M1333.33,1533.33c-92.045,0 -166.666,74.621 -166.666,166.667l-0,133.333c-0,92.046 74.62,166.667 166.666,166.667c92.046,0 166.667,-74.621 166.667,-166.667l0,-133.333c0,-92.046 -74.621,-166.667 -166.667,-166.667Zm100,300c0,55.23 -44.771,100 -100,100c-55.229,0 -100,-44.77 -100,-100l0,-133.333c0,-55.229 44.771,-100 100,-100c55.229,0 100,44.771 100,100l0,133.333Z" style="fill-rule:nonzero;"/></g></g><g><g><rect x="1300" y="1666.67" width="66.667" height="66.667"/></g></g><g><g><path d="M834.471,291.535l-133.458,466.399l64.066,18.332l133.457,-466.399l-64.065,-18.332Z"/></g></g><g><g><path d="M621.333,392.267l-42.666,-51.2l-200,166.666c-14.138,11.792 -16.042,32.809 -4.25,46.95c1.287,1.542 2.708,2.967 4.25,4.25l200,166.667l42.666,-51.2l-169.266,-141.067l169.266,-141.066Z" style="fill-rule:nonzero;"/></g></g><g><g><path d="M1225.58,511.983c-1.287,-1.541 -2.708,-2.966 -4.25,-4.25l-200,-166.666l-42.666,51.2l169.266,141.066l-169.266,141.067l42.666,51.2l200,-166.667c14.138,-11.791 16.042,-32.808 4.25,-46.95Z" style="fill-rule:nonzero;"/></g></g></svg>