<svg viewBox="0 0 1600 2000" xmlns="http://www.w3.org/2000/svg" fill-rule="evenodd" clip-rule="evenodd" stroke-linejoin="round" stroke-miterlimit="2"><symbol viewBox="0 0 1600 2000" id="code-svg"><path d="M1433.33 0H166.66C74.66.108.101 74.667-.007 166.667v900c.108 92 74.667 166.558 166.667 166.666h455.8L574.86 1400h-108.2v66.667h666.666V1400h-108.2l-47.6-166.667h455.8c92-.108 166.559-74.666 166.667-166.666v-900c-.108-92-74.667-166.559-166.667-166.667zM644.197 1400l47.6-166.667h216.4l47.6 166.667h-311.6zm889.133-333.333c0 55.229-44.771 100-100 100H166.66c-55.23 0-100-44.771-100-100V1000h1466.67v66.667zm0-133.334H66.66V166.667c0-55.229 44.77-100 100-100h1266.67c55.229 0 100 44.771 100 100v766.666zm-466.66 599.997H133.336c-18.408 0-33.333 14.925-33.333 33.334v400c0 18.408 14.925 33.333 33.333 33.333h933.334c18.408 0 33.333-14.925 33.333-33.333v-400c0-18.409-14.925-33.334-33.333-33.334zm-33.334 400H166.67v-333.333h866.666v333.333z" fill-rule="nonzero"/><path d="M233.333 1800H300v66.667h-66.667zm0-133.33H300v66.667h-66.667zm133.334 0h66.667v66.667h-66.667zm133.333 0h66.667v66.667H500zm266.667 0h66.667v66.667h-66.667zm-133.334 0H700v66.667h-66.667zM900 1800h66.667v66.667H900zm0-133.33h66.667v66.667H900zM366.667 1800h466.667v66.667H366.667z"/><path d="M1333.33 1533.33c-92.045 0-166.666 74.621-166.666 166.667v133.333c0 92.046 74.62 166.667 166.666 166.667 92.046 0 166.667-74.621 166.667-166.667v-133.333c0-92.046-74.621-166.667-166.667-166.667zm100 300c0 55.23-44.771 100-100 100s-100-44.77-100-100v-133.333c0-55.229 44.771-100 100-100s100 44.771 100 100v133.333z" fill-rule="nonzero"/><path d="M1300 1666.67h66.667v66.667H1300zM834.471 291.535L701.013 757.934l64.066 18.332 133.457-466.399-64.065-18.332z"/><path d="M621.333 392.267l-42.666-51.2-200 166.666c-14.138 11.792-16.042 32.809-4.25 46.95a33.2 33.2 0 004.25 4.25l200 166.667 42.666-51.2-169.266-141.067 169.266-141.066zm604.247 119.716a33.329 33.329 0 00-4.25-4.25l-200-166.666-42.666 51.2 169.266 141.066L978.664 674.4l42.666 51.2 200-166.667c14.138-11.791 16.042-32.808 4.25-46.95z" fill-rule="nonzero"/></symbol></svg>