<?xml version="1.0" encoding="UTF-8" standalone="no"?><!DOCTYPE svg PUBLIC "-//W3C//DTD SVG 1.1//EN" "http://www.w3.org/Graphics/SVG/1.1/DTD/svg11.dtd"><svg width="100%" height="100%" viewBox="0 0 1121 930" version="1.1" xmlns="http://www.w3.org/2000/svg" xmlns:xlink="http://www.w3.org/1999/xlink" xml:space="preserve" xmlns:serif="http://www.serif.com/" style="fill-rule:evenodd;clip-rule:evenodd;stroke-linejoin:round;stroke-miterlimit:2;"><g id="Head"><path id="Head-Base" serif:id="Head Base" d="M351.74,354.252c-53.203,9.084 -29.871,102.126 -29.321,235.037c1.031,249.608 172.121,336.635 361.665,339.504c186.608,2.824 339.429,-88.371 345.856,-284.769c3.291,-100.554 -3.318,-167.203 -16.81,-212.305c-18.197,-60.824 -48.915,-82.457 -84.757,-95.203c-32.044,179.862 -251.41,164.163 -576.633,17.736Z" style="fill:#ffebcc;"/><path id="Head-Shadow" serif:id="Head Shadow" d="M333.451,689.221c15.827,38.483 47.342,92.557 75.235,118.674c13.685,12.814 56.718,53.893 106.645,76.884c42.752,19.687 108.693,41.298 110.695,40.336c-61.812,-7.511 -99.446,-20.985 -124.843,-32.358c-76.977,-34.472 -114.53,-76.444 -138.465,-120.751c-7.063,-13.075 -25.114,-73.414 -29.267,-82.785Z" style="fill:#ffdbbb;"/><path id="Head-Highlight" serif:id="Head Highlight" d="M1030.48,623.823c0.44,-19.797 3.487,-124.302 -17.068,-190.993c-14.841,-48.153 -30.594,-64.725 -45.875,-77.075c26.438,53.395 30.487,68.34 44.65,128.194c11.005,46.504 16.787,118.957 18.293,139.874Z" style="fill:#fff6e5;"/><path id="Head-Hair-Shadow" serif:id="Head Hair Shadow" d="M315.685,352.469c-9.295,-9.942 9.665,114.101 19.571,99.466c4.478,-6.615 46.284,-0.363 113.968,14.783c77.243,17.287 249.38,22.838 373.871,-6.811" style="fill:#f8c496;"/></g><g id="Facial-Features" serif:id="Facial Features"><path id="Mouth" d="M595.359,768.632c26.647,56.39 188.857,59.526 220.386,2.082" style="fill:#fff;"/><path d="M714.827,655.341c6.054,-3.248 13.441,-3.92 20.332,-1.219c12.466,4.887 18.62,18.975 13.734,31.441c-2.702,6.891 -8.215,11.854 -14.711,14.088c7.473,-6.124 9.853,-13.529 9.901,-20.295c0.065,-9.148 -4.102,-14.995 -9.241,-19.724c-3.96,-3.644 -14.758,-6.1 -20.015,-4.291Z" style="fill:#fffcf5;"/><path d="M734.124,699.539c-8.174,3.159 -15.657,2.668 -19.33,1.745c-7.02,-1.762 -10.579,-7.844 -11.256,-9.626c-0.856,-2.249 -1.859,-5.257 -1.694,-8.108c4.981,14.598 19.674,18.331 32.28,15.989Z" style="fill:#ffd3ad;"/><circle id="Right-Eye" serif:id="Right Eye" cx="890.624" cy="591.562" r="29.576" style="fill:#333;"/><circle id="Left-Eye" serif:id="Left Eye" cx="544.997" cy="591.562" r="29.576" style="fill:#333;"/></g><g id="Top-Hair" serif:id="Top Hair"><path id="Top-Hair-Base" serif:id="Top Hair Base" d="M525.286,454.593c164.599,26.329 316.327,27.593 468.438,-52.975c62.138,-32.913 147.785,-97.274 121.276,-204.815c-26.51,-107.54 -152.218,-135.414 -290.158,-122.494c-89.77,8.408 -164.174,18.286 -256.963,29.364c-85.113,10.161 -149.282,13.297 -235.75,9.986c-80.901,-3.098 -164.959,-25.146 -237.817,-60.404c-23.554,-11.399 -46.538,-23.97 -69.324,-36.836c-8.678,-4.901 -16.847,-10.67 -24.988,-16.419c14.105,30.01 30.481,59.252 46.332,86.502c119.196,204.908 281.127,326.491 478.954,368.091Z" style="fill:#333;"/><path id="Top-Hair-Shadow" serif:id="Top Hair Shadow" d="M0,0c0,0 66.204,181.852 170.383,286.044c76.23,76.239 154.964,117.349 277.24,149.799c55.691,14.779 105.298,28.586 223.34,34.171c-145.741,-24.601 -278.692,-51.039 -403.663,-141.811c-130.375,-94.696 -210.445,-225.886 -219.694,-242.247c-18.768,-33.2 -31.231,-56.557 -47.606,-85.956Z"/><path id="Top-Hair-Left-Highlight" serif:id="Top Hair Left Highlight" d="M0,0c1.072,0.803 47.189,40.686 93.971,63.286c42.517,20.539 108.195,41.209 167.375,43.044c-63.972,-9.79 -125.152,-34.493 -151.339,-45.834c-56.093,-24.294 -110.007,-60.496 -110.007,-60.496" style="fill:#737373;"/><path id="Top-Hair-Right-Highlight" serif:id="Top Hair Right Highlight" d="M749.523,82.018c42.533,-2.928 88.052,-3.9 129.725,-1.786c31.554,1.601 60.811,4.966 84.727,10.995c24.203,5.881 44.532,13.38 61.698,22.192c10.16,5.214 19.155,10.936 27.182,17.101c8.769,6.735 16.391,13.982 22.878,21.911c9.407,11.029 17.001,24.127 22.704,38.334c5.564,13.862 9.329,28.725 10.867,44.021c3.041,30.232 -2.269,61.768 -19.402,89.356c14.542,-18.222 23.527,-39.093 27.668,-60.737c1.85,-9.665 2.652,-19.439 2.588,-29.179c-0.11,-16.659 -2.87,-33.12 -7.937,-48.493c-5.356,-16.249 -13.473,-31.148 -23.404,-43.948c-11.311,-13.857 -25.452,-26.23 -43.428,-36.49c-20.768,-11.853 -46.62,-20.92 -78.464,-27.356c-24.872,-4.786 -55.062,-6.751 -87.505,-6.39c-41.91,0.465 -87.465,4.685 -129.897,10.469Z" style="fill:#999;"/></g><g id="Side-Burn" serif:id="Side Burn"><path id="Side-Burn-Shadow" serif:id="Side Burn Shadow" d="M349.527,739.769c-36.351,-34.123 -74.185,-78.893 -111.108,-121.496c-36.923,-42.603 -76.798,-102.276 -91.788,-161.923c-24.397,-97.078 10.326,-145.867 10.326,-145.867c-0,-0 186.512,382.919 192.57,429.286Z"/><path id="Side-Burn-Base" serif:id="Side Burn Base" d="M349.527,739.769c-33.602,-59.535 -154.652,-179.991 -188.198,-288.079c-15.161,-48.849 -27.844,-107.603 -4.372,-141.207c20.893,-29.913 73.895,-46.251 119.631,-14.308c6.569,4.588 12.319,10.25 17.375,16.764c31.72,40.857 38.023,115.456 45.118,168.99c5.085,38.374 12.278,166.529 10.446,257.84Z" style="fill:#333;"/><path id="Side-Burn-Right-Highlight" serif:id="Side Burn Right Highlight" d="M324.074,388.112c6.38,17.493 16.857,96.878 20.603,153.002c3.745,56.093 6.901,130.855 4.85,198.655c-5.021,-135.483 -15.057,-287.476 -25.453,-351.657Z" style="fill:#666;"/><path id="Side-Burn-Top-Highlight" serif:id="Side Burn Top Highlight" d="M163.051,303.071c0,-0 14.429,-13.726 38.621,-19.314c7.471,-1.726 15.84,-2.595 25.138,-2.12c5.239,0.267 10.759,0.921 16.557,2.245c5.885,1.086 11.675,3.42 17.382,6.354c8.36,4.299 16.443,10.017 23.706,16.737c13.165,12.183 23.746,26.975 28.23,40.855c-2.323,-14.953 -10.478,-32.092 -22.358,-46.417c-6.965,-8.399 -15.188,-15.753 -24.09,-21.066c-6.582,-3.929 -13.615,-6.541 -20.617,-7.987c-6.603,-1.076 -12.851,-1.576 -18.748,-1.344c-10.313,0.404 -19.469,2.529 -27.402,5.586c-9.922,3.823 -17.819,8.953 -23.745,13.729c-8.461,6.821 -12.674,12.742 -12.674,12.742Z" style="fill:#737373;"/></g></svg>