<?xml-stylesheet type="text/css" href="/css/styles.css" ?><svg viewBox="0 0 2130 2130" xmlns="http://www.w3.org/2000/svg" fill-rule="evenodd" clip-rule="evenodd" stroke-linejoin="round" stroke-miterlimit="2"><symbol viewBox="0 0 2130 2130" id="joystick-svg"><path d="M1070.35 489.163c-101.169 0-187.605 43.534-225.552 113.58-8.219 15.139-2.583 34.064 12.557 42.267 15.14 8.22 34.064 2.583 42.268-12.557 26.64-49.155 93.648-80.928 170.727-80.928 77.095 0 144.103 31.773 170.743 80.928 5.653 10.429 16.374 16.342 27.437 16.342a31.1 31.1 0 0014.831-3.769c15.139-8.203 20.76-27.127 12.557-42.283-37.947-70.046-124.383-113.58-225.568-113.58z" fill-rule="nonzero"/><path d="M1388.56 528.019c5.653 10.413 16.374 16.326 27.436 16.326a31.11 31.11 0 0014.831-3.769c15.14-8.203 20.76-27.128 12.557-42.268-62.167-114.733-205.1-185.98-373.033-185.98-167.917 0-310.85 71.263-373.017 185.98-8.204 15.14-2.583 34.065 12.557 42.268 15.139 8.203 34.064 2.583 42.267-12.557 51.251-94.574 173.18-153.33 318.193-153.33 145.029 0 266.958 58.74 318.209 153.33z" fill-rule="nonzero"/><path d="M553.572 458.754c15.156 8.219 34.064 2.599 42.284-12.541 76.933-141.861 258.755-229.986 474.511-229.986 215.74 0 397.562 88.125 474.511 229.986 5.637 10.413 16.358 16.325 27.437 16.325a30.993 30.993 0 0014.831-3.784c15.139-8.204 20.76-27.128 12.54-42.268-87.849-161.988-290.674-262.621-529.319-262.621-238.644 0-441.47 100.633-529.336 262.621-8.203 15.14-2.582 34.064 12.541 42.268zM1669.16 1104.97c44.688 0 81.043-36.404 81.043-81.157 0-44.753-36.355-81.156-81.043-81.156-44.737 0-81.156 36.403-81.156 81.156 0 44.753 36.419 81.157 81.156 81.157zm0-99.951c10.315 0 18.681 8.43 18.681 18.794 0 10.202-8.544 18.811-18.681 18.811-10.364 0-18.795-8.447-18.795-18.811s8.448-18.794 18.795-18.794zM1669.16 1199.15c-44.737 0-81.156 36.419-81.156 81.172s36.419 81.157 81.156 81.157c44.688 0 81.043-36.404 81.043-81.157 0-44.753-36.355-81.172-81.043-81.172zm0 99.967c-10.364 0-18.795-8.431-18.795-18.795 0-10.363 8.431-18.81 18.795-18.81 10.137 0 18.681 8.609 18.681 18.81.016 10.364-8.366 18.795-18.681 18.795zM1621.96 1152.06c0-44.737-36.403-81.157-81.156-81.157-44.753 0-81.156 36.404-81.156 81.157 0 44.753 36.403 81.172 81.156 81.172 44.753 0 81.156-36.419 81.156-81.172zm-81.156 18.811c-10.364 0-18.795-8.431-18.795-18.811 0-10.364 8.431-18.795 18.795-18.795 10.364 0 18.811 8.431 18.811 18.795 0 10.38-8.447 18.811-18.811 18.811zM1797.43 1070.9c-44.753 0-81.173 36.404-81.173 81.157 0 44.753 36.42 81.172 81.173 81.172s81.156-36.419 81.156-81.172c0-44.737-36.403-81.157-81.156-81.157zm0 99.968c-10.364 0-18.811-8.431-18.811-18.811 0-10.364 8.447-18.795 18.811-18.795s18.794 8.431 18.794 18.795c0 10.38-8.43 18.811-18.794 18.811zM773.779 1271.42c-81.465 0-147.758 66.276-147.758 147.757 0 81.482 66.293 147.758 147.758 147.758 81.481 0 147.758-66.293 147.758-147.758 0-81.481-66.277-147.757-147.758-147.757zm0 233.17c-47.092 0-85.396-38.321-85.396-85.413s38.304-85.396 85.396-85.396 85.413 38.304 85.413 85.396-38.321 85.413-85.413 85.413z" fill-rule="nonzero"/><path d="M2114.87 1630.63l-150.178-619.946c-21.605-89.165-64.506-157.131-127.517-202.014-12.996-9.259-26.787-17.43-41.228-24.48v-12.768c0-64.896-52.746-117.69-117.576-117.69h-69.899c-64.913 0-117.706 52.794-117.706 117.69v18.015c-25.163 13.71-45.03 30.425-56.953 48.895h-300.746c-17.219 0-17.219 62.362 0 62.362h289.326v63.71c0 35.201-28.589 63.84-63.71 63.84H770.479c-35.185 0-63.824-28.639-63.824-63.84v-63.71h426.412c17.219 0 17.219-62.362 0-62.362H695.235c-11.891-18.437-31.709-35.136-56.838-48.846v-18.064c0-64.896-52.794-117.706-117.706-117.706h-69.769c-64.913 0-117.706 52.81-117.706 117.706v12.752c-14.409 7.05-28.152 15.204-41.131 24.431-63.06 44.867-105.994 112.865-127.615 202.079l-150.178 619.93c-22.108 91.211-18.551 168.372 10.559 229.352 26.039 54.516 71.198 92.999 130.604 111.257 127.306 39.149 276.363-26.185 318.988-139.814l72.141-192.153c9.275-24.724 16.634-27.859 16.715-27.892.845-.195 6.498.536 17.219 8.366 101.023 91.731 266.471 87.768 375.421-7.294h217.267c50.406 44.006 114.458 70.062 181.741 73.684 73.457 3.948 142.138-19.623 193.681-66.39 12.085-8.837 17.137-8.414 17.186-8.366.065.033 7.407 3.152 16.748 27.875l72.027 192.17c34.243 91.163 136.955 151.234 241.958 151.218 25.926 0 51.998-3.655 77.209-11.42 59.389-18.275 104.532-56.757 130.555-111.289 29.11-60.965 32.668-138.109 10.559-229.288zm-506.415-914.552h69.899c27.08 0 49.627 19.639 54.305 45.451-25.877-6.286-53.054-9.6-81.14-9.697h-1.283c-33.772 0-66.732 4.645-96.67 12.832 3.362-27.322 26.673-48.586 54.889-48.586zm-1157.53 0h69.769c28.232 0 51.543 21.264 54.889 48.603-29.922-8.187-62.898-12.849-96.67-12.849h-1.072c-28.151.081-55.393 3.395-81.335 9.697 4.695-25.812 27.274-45.451 54.419-45.451zm1504.5 1195.53c-86.339 26.576-208.382-11.452-242.43-102.111l-72.059-192.219c-14.003-37.069-32.895-58.577-57.749-65.789-22.774-6.628-47.384-.13-73.148 19.249a34.571 34.571 0 00-2.355 1.966c-80.231 73.781-215.22 67.495-300.893-14.019a31.164 31.164 0 00-21.491-8.593H943.878a31.164 31.164 0 00-21.491 8.593c-85.737 81.563-220.711 87.865-300.876 14.035a31.36 31.36 0 00-2.388-1.982c-25.796-19.412-50.439-25.877-73.262-19.233-24.886 7.245-43.746 28.785-57.651 65.838l-72.141 192.154c-33.999 90.659-155.961 128.687-242.283 102.143-96.669-29.743-132.716-126.802-98.895-266.324l150.178-619.93c27.128-111.939 87.362-165.789 147.32-190.838a30.475 30.475 0 007.147-2.875c35.77-13.613 70.971-17.398 98.489-17.479 46.556-.065 86.712 9.925 116.033 22.726.503.227 1.007.471 1.543.682 26.657 11.875 44.022 26.024 48.684 36.826v89.977c0 69.574 56.611 126.185 126.185 126.185h588.205c69.509 0 126.072-56.611 126.072-126.185v-89.961c4.613-10.672 21.605-24.626 47.661-36.419 1.527-.553 3.005-1.17 4.402-1.933 28.963-12.362 68.063-21.898 113.352-21.898h1.121c27.485.098 62.654 3.899 98.375 17.512a31.08 31.08 0 007.05 2.826c59.974 25.032 120.24 78.882 147.368 190.838l150.179 619.946c33.836 139.489-2.193 236.549-98.83 266.292z" fill-rule="nonzero"/><path d="M1379.79 1271.42c-81.481 0-147.758 66.276-147.758 147.757 0 81.482 66.277 147.758 147.758 147.758 81.465 0 147.758-66.293 147.758-147.758 0-81.481-66.293-147.757-147.758-147.757zm0 233.17c-47.092 0-85.396-38.321-85.396-85.413s38.304-85.396 85.396-85.396 85.396 38.304 85.396 85.396-38.304 85.413-85.396 85.413zM558.299 1070.79h-9.487v-9.487c0-52.745-42.917-95.662-95.662-95.662-52.745 0-95.662 42.917-95.662 95.662v9.487h-9.487c-52.745 0-95.646 42.917-95.646 95.662 0 52.745 42.901 95.663 95.646 95.663h9.487v9.486c0 52.745 42.917 95.663 95.662 95.663 52.745 0 95.662-42.918 95.662-95.663v-9.486h9.487c52.745 0 95.663-42.918 95.663-95.663s-42.918-95.662-95.663-95.662zm0 128.963H517.64c-17.219 0-31.189 13.954-31.189 31.173v40.675c0 18.356-14.929 33.301-33.301 33.301-18.356 0-33.285-14.945-33.285-33.301v-40.675c0-17.219-13.97-31.173-31.188-31.173h-40.66c-18.356 0-33.301-14.945-33.301-33.301s14.945-33.301 33.301-33.301h40.66c17.218 0 31.188-13.97 31.188-31.189v-40.659c0-18.372 14.929-33.301 33.285-33.301 18.372 0 33.301 14.929 33.301 33.301v40.659c0 17.219 13.97 31.189 31.189 31.189h40.659c18.356 0 33.301 14.945 33.301 33.301s-14.929 33.301-33.301 33.301zM982.778 1186.19h-45.273c-17.219 0-31.173 13.97-31.173 31.189s13.954 31.173 31.173 31.173h45.273c17.219 0 31.173-13.954 31.173-31.173 0-17.219-13.954-31.189-31.173-31.189zM1191.66 1186.19h-45.387c-17.218 0-31.189 13.97-31.189 31.189s13.971 31.173 31.189 31.173h45.387c17.219 0 31.173-13.954 31.173-31.173 0-17.219-13.954-31.189-31.173-31.189zM1099.23 1349.57h-45.256c-17.219 0-31.189 13.954-31.189 31.172 0 17.219 13.97 31.189 31.189 31.189h45.256c17.235 0 31.189-13.97 31.189-31.189 0-17.218-13.954-31.172-31.189-31.172z" fill-rule="nonzero"/></symbol></svg>